<svg width="1440" height="932" viewBox="0 0 1440 932" fill="none" xmlns="http://www.w3.org/2000/svg">
<g clip-path="url(#clip0_309_10)">
<path d="M1446.74 534.927L1318.86 675.452C1307.34 688.115 1308.27 707.721 1320.93 719.244L1451.1 837.7C1463.76 849.223 1483.37 848.299 1494.89 835.636L1622.77 695.111C1634.29 682.449 1633.37 662.842 1620.7 651.319L1490.53 532.864C1477.87 521.341 1458.27 522.265 1446.74 534.927Z" fill="#FAC6D2"/>
<path d="M-84.2577 22.9275L-212.136 163.452C-223.659 176.115 -222.735 195.721 -210.072 207.244L-79.902 325.7C-67.2393 337.223 -47.633 336.299 -36.1099 323.636L91.7681 183.112C103.291 170.449 102.367 150.843 89.7047 139.32L-40.4656 20.8641C-53.1283 9.34105 -72.7346 10.2649 -84.2577 22.9275Z" fill="#FAC6D2"/>
</g>
<defs>
<clipPath id="clip0_309_10">
<rect width="1440" height="932" fill="white"/>
</clipPath>
</defs>
</svg>
