<svg width="992" height="192" viewBox="0 0 992 192" fill="none" xmlns="http://www.w3.org/2000/svg">
<circle cx="96" cy="96" r="96" fill="#04BBA9"/>
<circle cx="358" cy="96" r="96" fill="#FFC53F"/>
<circle cx="620" cy="96" r="96" fill="#9CDDD9"/>
<circle cx="896" cy="96" r="96" fill="#FAC6D2"/>
<path d="M55.4582 90.848V93.608H60.8582V97.184H55.4582V100.232H61.5782V104H50.7542V87.08H61.5782V90.848H55.4582ZM68.6066 86.24V104H63.9026V86.24H68.6066ZM84.1494 97.112C84.1494 97.48 84.1254 97.848 84.0774 98.216H75.1734C75.2214 98.952 75.4214 99.504 75.7734 99.872C76.1414 100.224 76.6054 100.4 77.1654 100.4C77.9494 100.4 78.5094 100.048 78.8454 99.344H83.8614C83.6534 100.272 83.2454 101.104 82.6374 101.84C82.0454 102.56 81.2934 103.128 80.3814 103.544C79.4694 103.96 78.4614 104.168 77.3574 104.168C76.0294 104.168 74.8454 103.888 73.8054 103.328C72.7814 102.768 71.9734 101.968 71.3814 100.928C70.8054 99.888 70.5174 98.664 70.5174 97.256C70.5174 95.848 70.8054 94.632 71.3814 93.608C71.9574 92.568 72.7574 91.768 73.7814 91.208C74.8214 90.648 76.0134 90.368 77.3574 90.368C78.6854 90.368 79.8614 90.64 80.8854 91.184C81.9094 91.728 82.7094 92.512 83.2854 93.536C83.8614 94.544 84.1494 95.736 84.1494 97.112ZM79.3494 95.936C79.3494 95.36 79.1574 94.912 78.7734 94.592C78.3894 94.256 77.9094 94.088 77.3334 94.088C76.7574 94.088 76.2854 94.248 75.9174 94.568C75.5494 94.872 75.3094 95.328 75.1974 95.936H79.3494ZM103.666 90.416C105.362 90.416 106.69 90.928 107.65 91.952C108.626 92.976 109.114 94.376 109.114 96.152V104H104.41V96.776C104.41 96.056 104.21 95.496 103.81 95.096C103.41 94.696 102.866 94.496 102.178 94.496C101.49 94.496 100.946 94.696 100.546 95.096C100.146 95.496 99.9465 96.056 99.9465 96.776V104H95.2425V96.776C95.2425 96.056 95.0425 95.496 94.6425 95.096C94.2585 94.696 93.7225 94.496 93.0345 94.496C92.3305 94.496 91.7785 94.696 91.3785 95.096C90.9785 95.496 90.7785 96.056 90.7785 96.776V104H86.0745V90.536H90.7785V92.312C91.1945 91.736 91.7305 91.28 92.3865 90.944C93.0585 90.592 93.8265 90.416 94.6905 90.416C95.6825 90.416 96.5625 90.632 97.3305 91.064C98.1145 91.496 98.7305 92.104 99.1785 92.888C99.6585 92.152 100.29 91.56 101.074 91.112C101.858 90.648 102.722 90.416 103.666 90.416ZM124.556 97.112C124.556 97.48 124.532 97.848 124.484 98.216H115.58C115.628 98.952 115.828 99.504 116.18 99.872C116.548 100.224 117.012 100.4 117.572 100.4C118.356 100.4 118.916 100.048 119.252 99.344H124.268C124.06 100.272 123.652 101.104 123.044 101.84C122.452 102.56 121.7 103.128 120.788 103.544C119.876 103.96 118.868 104.168 117.764 104.168C116.436 104.168 115.252 103.888 114.212 103.328C113.188 102.768 112.38 101.968 111.788 100.928C111.212 99.888 110.924 98.664 110.924 97.256C110.924 95.848 111.212 94.632 111.788 93.608C112.364 92.568 113.164 91.768 114.188 91.208C115.228 90.648 116.42 90.368 117.764 90.368C119.092 90.368 120.268 90.64 121.292 91.184C122.316 91.728 123.116 92.512 123.692 93.536C124.268 94.544 124.556 95.736 124.556 97.112ZM119.756 95.936C119.756 95.36 119.564 94.912 119.18 94.592C118.796 94.256 118.316 94.088 117.74 94.088C117.164 94.088 116.692 94.248 116.324 94.568C115.956 94.872 115.716 95.328 115.604 95.936H119.756ZM135.289 90.416C136.841 90.416 138.073 90.936 138.985 91.976C139.897 93 140.353 94.392 140.353 96.152V104H135.649V96.776C135.649 96.008 135.449 95.408 135.049 94.976C134.649 94.528 134.113 94.304 133.441 94.304C132.737 94.304 132.185 94.528 131.785 94.976C131.385 95.408 131.185 96.008 131.185 96.776V104H126.481V90.536H131.185V92.456C131.601 91.848 132.161 91.36 132.865 90.992C133.569 90.608 134.377 90.416 135.289 90.416Z" fill="#1F1F1F"/>
<path d="M235.7 94.784H229.904V100.76H223.136V94.784H217.304V88.412H223.136V82.4H229.904V88.412H235.7V94.784Z" fill="#1F1F1F"/>
<path d="M498.812 83.588V89.96H478.184V83.588H498.812ZM498.812 93.236V99.572H478.184V93.236H498.812Z" fill="#1F1F1F"/>
<path d="M753.364 88.592V94.46H737.056V88.592H753.364ZM758.084 83.696H766.904L773.816 91.58L766.904 99.428H758.084L764.996 91.58L758.084 83.696Z" fill="#1F1F1F"/>
<path d="M324.946 101.24H318.946L318.034 104H313.09L319.258 87.08H324.682L330.826 104H325.858L324.946 101.24ZM323.77 97.64L321.946 92.168L320.146 97.64H323.77ZM340.304 99.992V104H338.264C334.824 104 333.104 102.296 333.104 98.888V94.448H331.448V90.536H333.104V87.272H337.832V90.536H340.28V94.448H337.832V98.96C337.832 99.328 337.912 99.592 338.072 99.752C338.248 99.912 338.536 99.992 338.936 99.992H340.304ZM347.165 92.912C347.693 92.144 348.333 91.536 349.085 91.088C349.837 90.64 350.645 90.416 351.509 90.416V95.432H350.189C349.165 95.432 348.405 95.632 347.909 96.032C347.413 96.432 347.165 97.128 347.165 98.12V104H342.461V90.536H347.165V92.912ZM355.572 89.288C354.74 89.288 354.068 89.064 353.556 88.616C353.06 88.152 352.812 87.576 352.812 86.888C352.812 86.184 353.06 85.6 353.556 85.136C354.068 84.672 354.74 84.44 355.572 84.44C356.388 84.44 357.044 84.672 357.54 85.136C358.052 85.6 358.308 86.184 358.308 86.888C358.308 87.576 358.052 88.152 357.54 88.616C357.044 89.064 356.388 89.288 355.572 89.288ZM357.9 90.536V104H353.196V90.536H357.9ZM365.282 92.408C365.65 91.768 366.17 91.272 366.842 90.92C367.514 90.552 368.306 90.368 369.218 90.368C370.29 90.368 371.258 90.648 372.122 91.208C373.002 91.768 373.69 92.568 374.186 93.608C374.698 94.648 374.954 95.864 374.954 97.256C374.954 98.648 374.698 99.872 374.186 100.928C373.69 101.968 373.002 102.768 372.122 103.328C371.258 103.888 370.29 104.168 369.218 104.168C368.306 104.168 367.514 103.992 366.842 103.64C366.17 103.272 365.65 102.768 365.282 102.128V104H360.578V86.24H365.282V92.408ZM370.178 97.256C370.178 96.376 369.938 95.696 369.458 95.216C368.994 94.72 368.418 94.472 367.73 94.472C367.042 94.472 366.458 94.72 365.978 95.216C365.514 95.712 365.282 96.392 365.282 97.256C365.282 98.136 365.514 98.824 365.978 99.32C366.458 99.816 367.042 100.064 367.73 100.064C368.418 100.064 368.994 99.816 369.458 99.32C369.938 98.808 370.178 98.12 370.178 97.256ZM390.667 90.536V104H385.939V102.08C385.539 102.688 384.987 103.184 384.283 103.568C383.579 103.936 382.771 104.12 381.859 104.12C380.291 104.12 379.051 103.608 378.139 102.584C377.243 101.544 376.795 100.136 376.795 98.36V90.536H381.475V97.76C381.475 98.528 381.675 99.136 382.075 99.584C382.491 100.016 383.035 100.232 383.707 100.232C384.395 100.232 384.939 100.016 385.339 99.584C385.739 99.136 385.939 98.528 385.939 97.76V90.536H390.667ZM401.288 99.992V104H399.248C395.808 104 394.088 102.296 394.088 98.888V94.448H392.432V90.536H394.088V87.272H398.816V90.536H401.264V94.448H398.816V98.96C398.816 99.328 398.896 99.592 399.056 99.752C399.232 99.912 399.52 99.992 399.92 99.992H401.288Z" fill="#1F1F1F"/>
<path d="M580.939 92.72C580.939 93.744 580.699 94.68 580.219 95.528C579.755 96.36 579.043 97.032 578.083 97.544C577.139 98.04 575.979 98.288 574.603 98.288H572.275V104H567.571V87.08H574.603C575.963 87.08 577.115 87.32 578.059 87.8C579.019 88.28 579.739 88.944 580.219 89.792C580.699 90.64 580.939 91.616 580.939 92.72ZM574.147 94.544C575.475 94.544 576.139 93.936 576.139 92.72C576.139 91.488 575.475 90.872 574.147 90.872H572.275V94.544H574.147ZM595.692 97.112C595.692 97.48 595.668 97.848 595.62 98.216H586.716C586.764 98.952 586.964 99.504 587.316 99.872C587.684 100.224 588.148 100.4 588.708 100.4C589.492 100.4 590.052 100.048 590.388 99.344H595.404C595.196 100.272 594.788 101.104 594.18 101.84C593.588 102.56 592.836 103.128 591.924 103.544C591.012 103.96 590.004 104.168 588.9 104.168C587.572 104.168 586.388 103.888 585.348 103.328C584.324 102.768 583.516 101.968 582.924 100.928C582.348 99.888 582.06 98.664 582.06 97.256C582.06 95.848 582.348 94.632 582.924 93.608C583.5 92.568 584.3 91.768 585.324 91.208C586.364 90.648 587.556 90.368 588.9 90.368C590.228 90.368 591.404 90.64 592.428 91.184C593.452 91.728 594.252 92.512 594.828 93.536C595.404 94.544 595.692 95.736 595.692 97.112ZM590.892 95.936C590.892 95.36 590.7 94.912 590.316 94.592C589.932 94.256 589.452 94.088 588.876 94.088C588.3 94.088 587.828 94.248 587.46 94.568C587.092 94.872 586.852 95.328 586.74 95.936H590.892ZM602.321 92.912C602.849 92.144 603.489 91.536 604.241 91.088C604.993 90.64 605.801 90.416 606.665 90.416V95.432H605.345C604.321 95.432 603.561 95.632 603.065 96.032C602.569 96.432 602.321 97.128 602.321 98.12V104H597.617V90.536H602.321V92.912ZM614.088 104.168C612.872 104.168 611.784 103.968 610.824 103.568C609.88 103.152 609.128 102.592 608.568 101.888C608.024 101.168 607.72 100.36 607.656 99.464H612.216C612.28 99.896 612.48 100.232 612.816 100.472C613.152 100.712 613.568 100.832 614.064 100.832C614.448 100.832 614.752 100.752 614.976 100.592C615.2 100.432 615.312 100.224 615.312 99.968C615.312 99.632 615.128 99.384 614.76 99.224C614.392 99.064 613.784 98.888 612.936 98.696C611.976 98.504 611.176 98.288 610.536 98.048C609.896 97.808 609.336 97.416 608.856 96.872C608.392 96.328 608.16 95.592 608.16 94.664C608.16 93.864 608.376 93.144 608.808 92.504C609.24 91.848 609.872 91.328 610.704 90.944C611.552 90.56 612.568 90.368 613.752 90.368C615.512 90.368 616.896 90.8 617.904 91.664C618.912 92.528 619.496 93.664 619.656 95.072H615.408C615.328 94.64 615.136 94.312 614.832 94.088C614.544 93.848 614.152 93.728 613.656 93.728C613.272 93.728 612.976 93.8 612.768 93.944C612.576 94.088 612.48 94.288 612.48 94.544C612.48 94.864 612.664 95.112 613.032 95.288C613.4 95.448 613.992 95.616 614.808 95.792C615.784 96 616.592 96.232 617.232 96.488C617.888 96.744 618.456 97.16 618.936 97.736C619.432 98.296 619.68 99.064 619.68 100.04C619.68 100.824 619.448 101.528 618.984 102.152C618.536 102.776 617.888 103.272 617.04 103.64C616.208 103.992 615.224 104.168 614.088 104.168ZM634.856 97.112C634.856 97.48 634.832 97.848 634.784 98.216H625.88C625.928 98.952 626.128 99.504 626.48 99.872C626.848 100.224 627.312 100.4 627.872 100.4C628.656 100.4 629.216 100.048 629.552 99.344H634.568C634.36 100.272 633.952 101.104 633.344 101.84C632.752 102.56 632 103.128 631.088 103.544C630.176 103.96 629.168 104.168 628.064 104.168C626.736 104.168 625.552 103.888 624.512 103.328C623.488 102.768 622.68 101.968 622.088 100.928C621.512 99.888 621.224 98.664 621.224 97.256C621.224 95.848 621.512 94.632 622.088 93.608C622.664 92.568 623.464 91.768 624.488 91.208C625.528 90.648 626.72 90.368 628.064 90.368C629.392 90.368 630.568 90.64 631.592 91.184C632.616 91.728 633.416 92.512 633.992 93.536C634.568 94.544 634.856 95.736 634.856 97.112ZM630.056 95.936C630.056 95.36 629.864 94.912 629.48 94.592C629.096 94.256 628.616 94.088 628.04 94.088C627.464 94.088 626.992 94.248 626.624 94.568C626.256 94.872 626.016 95.328 625.904 95.936H630.056ZM641.486 92.408C641.854 91.784 642.374 91.288 643.046 90.92C643.718 90.552 644.51 90.368 645.422 90.368C646.494 90.368 647.462 90.648 648.326 91.208C649.206 91.768 649.894 92.568 650.39 93.608C650.902 94.648 651.158 95.864 651.158 97.256C651.158 98.648 650.902 99.872 650.39 100.928C649.894 101.968 649.206 102.768 648.326 103.328C647.462 103.888 646.494 104.168 645.422 104.168C644.51 104.168 643.718 103.984 643.046 103.616C642.39 103.248 641.87 102.752 641.486 102.128V110.432H636.782V90.536H641.486V92.408ZM646.382 97.256C646.382 96.376 646.142 95.696 645.662 95.216C645.198 94.72 644.622 94.472 643.934 94.472C643.246 94.472 642.662 94.72 642.182 95.216C641.718 95.712 641.486 96.392 641.486 97.256C641.486 98.136 641.718 98.824 642.182 99.32C642.662 99.816 643.246 100.064 643.934 100.064C644.622 100.064 645.198 99.816 645.662 99.32C646.142 98.808 646.382 98.12 646.382 97.256ZM658.83 104.168C657.614 104.168 656.526 103.968 655.566 103.568C654.622 103.152 653.87 102.592 653.31 101.888C652.766 101.168 652.462 100.36 652.398 99.464H656.958C657.022 99.896 657.222 100.232 657.558 100.472C657.894 100.712 658.31 100.832 658.806 100.832C659.19 100.832 659.494 100.752 659.718 100.592C659.942 100.432 660.054 100.224 660.054 99.968C660.054 99.632 659.87 99.384 659.502 99.224C659.134 99.064 658.526 98.888 657.678 98.696C656.718 98.504 655.918 98.288 655.278 98.048C654.638 97.808 654.078 97.416 653.598 96.872C653.134 96.328 652.902 95.592 652.902 94.664C652.902 93.864 653.118 93.144 653.55 92.504C653.982 91.848 654.614 91.328 655.446 90.944C656.294 90.56 657.31 90.368 658.494 90.368C660.254 90.368 661.638 90.8 662.646 91.664C663.654 92.528 664.238 93.664 664.398 95.072H660.15C660.07 94.64 659.878 94.312 659.574 94.088C659.286 93.848 658.894 93.728 658.398 93.728C658.014 93.728 657.718 93.8 657.51 93.944C657.318 94.088 657.222 94.288 657.222 94.544C657.222 94.864 657.406 95.112 657.774 95.288C658.142 95.448 658.734 95.616 659.55 95.792C660.526 96 661.334 96.232 661.974 96.488C662.63 96.744 663.198 97.16 663.678 97.736C664.174 98.296 664.422 99.064 664.422 100.04C664.422 100.824 664.19 101.528 663.726 102.152C663.278 102.776 662.63 103.272 661.782 103.64C660.95 103.992 659.966 104.168 658.83 104.168ZM669.111 89.288C668.279 89.288 667.607 89.064 667.095 88.616C666.599 88.152 666.351 87.576 666.351 86.888C666.351 86.184 666.599 85.6 667.095 85.136C667.607 84.672 668.279 84.44 669.111 84.44C669.927 84.44 670.583 84.672 671.079 85.136C671.591 85.6 671.847 86.184 671.847 86.888C671.847 87.576 671.591 88.152 671.079 88.616C670.583 89.064 669.927 89.288 669.111 89.288ZM671.439 90.536V104H666.735V90.536H671.439Z" fill="#1F1F1F"/>
<path d="M828.181 87.08V104H823.477V87.08H828.181ZM839.668 90.416C841.22 90.416 842.452 90.936 843.364 91.976C844.276 93 844.732 94.392 844.732 96.152V104H840.028V96.776C840.028 96.008 839.828 95.408 839.428 94.976C839.028 94.528 838.492 94.304 837.82 94.304C837.116 94.304 836.564 94.528 836.164 94.976C835.764 95.408 835.564 96.008 835.564 96.776V104H830.86V90.536H835.564V92.456C835.98 91.848 836.54 91.36 837.244 90.992C837.948 90.608 838.756 90.416 839.668 90.416ZM855.257 99.992V104H853.217C849.777 104 848.057 102.296 848.057 98.888V94.448H846.401V90.536H848.057V87.272H852.785V90.536H855.233V94.448H852.785V98.96C852.785 99.328 852.865 99.592 853.025 99.752C853.201 99.912 853.489 99.992 853.889 99.992H855.257ZM870.278 97.112C870.278 97.48 870.254 97.848 870.206 98.216H861.302C861.35 98.952 861.55 99.504 861.902 99.872C862.27 100.224 862.734 100.4 863.294 100.4C864.078 100.4 864.638 100.048 864.974 99.344H869.99C869.782 100.272 869.374 101.104 868.766 101.84C868.174 102.56 867.422 103.128 866.51 103.544C865.598 103.96 864.59 104.168 863.486 104.168C862.158 104.168 860.974 103.888 859.934 103.328C858.91 102.768 858.102 101.968 857.51 100.928C856.934 99.888 856.646 98.664 856.646 97.256C856.646 95.848 856.934 94.632 857.51 93.608C858.086 92.568 858.886 91.768 859.91 91.208C860.95 90.648 862.142 90.368 863.486 90.368C864.814 90.368 865.99 90.64 867.014 91.184C868.038 91.728 868.838 92.512 869.414 93.536C869.99 94.544 870.278 95.736 870.278 97.112ZM865.478 95.936C865.478 95.36 865.286 94.912 864.902 94.592C864.518 94.256 864.038 94.088 863.462 94.088C862.886 94.088 862.414 94.248 862.046 94.568C861.678 94.872 861.438 95.328 861.326 95.936H865.478ZM876.907 92.912C877.435 92.144 878.075 91.536 878.827 91.088C879.579 90.64 880.387 90.416 881.251 90.416V95.432H879.931C878.907 95.432 878.147 95.632 877.651 96.032C877.155 96.432 876.907 97.128 876.907 98.12V104H872.203V90.536H876.907V92.912ZM887.642 92.408C888.01 91.784 888.53 91.288 889.202 90.92C889.874 90.552 890.666 90.368 891.578 90.368C892.65 90.368 893.618 90.648 894.482 91.208C895.362 91.768 896.05 92.568 896.546 93.608C897.058 94.648 897.314 95.864 897.314 97.256C897.314 98.648 897.058 99.872 896.546 100.928C896.05 101.968 895.362 102.768 894.482 103.328C893.618 103.888 892.65 104.168 891.578 104.168C890.666 104.168 889.874 103.984 889.202 103.616C888.546 103.248 888.026 102.752 887.642 102.128V110.432H882.938V90.536H887.642V92.408ZM892.538 97.256C892.538 96.376 892.298 95.696 891.818 95.216C891.354 94.72 890.778 94.472 890.09 94.472C889.402 94.472 888.818 94.72 888.338 95.216C887.874 95.712 887.642 96.392 887.642 97.256C887.642 98.136 887.874 98.824 888.338 99.32C888.818 99.816 889.402 100.064 890.09 100.064C890.778 100.064 891.354 99.816 891.818 99.32C892.298 98.808 892.538 98.12 892.538 97.256ZM903.954 92.912C904.482 92.144 905.122 91.536 905.874 91.088C906.626 90.64 907.434 90.416 908.298 90.416V95.432H906.978C905.954 95.432 905.194 95.632 904.698 96.032C904.202 96.432 903.954 97.128 903.954 98.12V104H899.25V90.536H903.954V92.912ZM922.849 97.112C922.849 97.48 922.825 97.848 922.777 98.216H913.873C913.921 98.952 914.121 99.504 914.473 99.872C914.841 100.224 915.305 100.4 915.865 100.4C916.649 100.4 917.209 100.048 917.545 99.344H922.561C922.353 100.272 921.945 101.104 921.337 101.84C920.745 102.56 919.993 103.128 919.081 103.544C918.169 103.96 917.161 104.168 916.057 104.168C914.729 104.168 913.545 103.888 912.505 103.328C911.481 102.768 910.673 101.968 910.081 100.928C909.505 99.888 909.217 98.664 909.217 97.256C909.217 95.848 909.505 94.632 910.081 93.608C910.657 92.568 911.457 91.768 912.481 91.208C913.521 90.648 914.713 90.368 916.057 90.368C917.385 90.368 918.561 90.64 919.585 91.184C920.609 91.728 921.409 92.512 921.985 93.536C922.561 94.544 922.849 95.736 922.849 97.112ZM918.049 95.936C918.049 95.36 917.857 94.912 917.473 94.592C917.089 94.256 916.609 94.088 916.033 94.088C915.457 94.088 914.985 94.248 914.617 94.568C914.249 94.872 914.009 95.328 913.897 95.936H918.049ZM932.718 99.992V104H930.678C927.238 104 925.518 102.296 925.518 98.888V94.448H923.862V90.536H925.518V87.272H930.246V90.536H932.694V94.448H930.246V98.96C930.246 99.328 930.326 99.592 930.486 99.752C930.662 99.912 930.95 99.992 931.35 99.992H932.718ZM934.107 97.256C934.107 95.864 934.355 94.648 934.851 93.608C935.363 92.568 936.051 91.768 936.915 91.208C937.795 90.648 938.771 90.368 939.843 90.368C940.771 90.368 941.571 90.552 942.243 90.92C942.915 91.288 943.435 91.784 943.803 92.408V90.536H948.507V104H943.803V102.128C943.435 102.752 942.907 103.248 942.219 103.616C941.547 103.984 940.755 104.168 939.843 104.168C938.771 104.168 937.795 103.888 936.915 103.328C936.051 102.768 935.363 101.968 934.851 100.928C934.355 99.872 934.107 98.648 934.107 97.256ZM943.803 97.256C943.803 96.392 943.563 95.712 943.083 95.216C942.619 94.72 942.043 94.472 941.355 94.472C940.651 94.472 940.067 94.72 939.603 95.216C939.139 95.696 938.907 96.376 938.907 97.256C938.907 98.12 939.139 98.808 939.603 99.32C940.067 99.816 940.651 100.064 941.355 100.064C942.043 100.064 942.619 99.816 943.083 99.32C943.563 98.824 943.803 98.136 943.803 97.256ZM956.924 104.168C955.708 104.168 954.62 103.968 953.66 103.568C952.716 103.152 951.964 102.592 951.404 101.888C950.86 101.168 950.556 100.36 950.492 99.464H955.052C955.116 99.896 955.316 100.232 955.652 100.472C955.988 100.712 956.404 100.832 956.9 100.832C957.284 100.832 957.588 100.752 957.812 100.592C958.036 100.432 958.148 100.224 958.148 99.968C958.148 99.632 957.964 99.384 957.596 99.224C957.228 99.064 956.62 98.888 955.772 98.696C954.812 98.504 954.012 98.288 953.372 98.048C952.732 97.808 952.172 97.416 951.692 96.872C951.228 96.328 950.996 95.592 950.996 94.664C950.996 93.864 951.212 93.144 951.644 92.504C952.076 91.848 952.708 91.328 953.54 90.944C954.388 90.56 955.404 90.368 956.588 90.368C958.348 90.368 959.732 90.8 960.74 91.664C961.748 92.528 962.332 93.664 962.492 95.072H958.244C958.164 94.64 957.972 94.312 957.668 94.088C957.38 93.848 956.988 93.728 956.492 93.728C956.108 93.728 955.812 93.8 955.604 93.944C955.412 94.088 955.316 94.288 955.316 94.544C955.316 94.864 955.5 95.112 955.868 95.288C956.236 95.448 956.828 95.616 957.644 95.792C958.62 96 959.428 96.232 960.068 96.488C960.724 96.744 961.292 97.16 961.772 97.736C962.268 98.296 962.516 99.064 962.516 100.04C962.516 100.824 962.284 101.528 961.82 102.152C961.372 102.776 960.724 103.272 959.876 103.64C959.044 103.992 958.06 104.168 956.924 104.168ZM967.204 89.288C966.372 89.288 965.7 89.064 965.188 88.616C964.692 88.152 964.444 87.576 964.444 86.888C964.444 86.184 964.692 85.6 965.188 85.136C965.7 84.672 966.372 84.44 967.204 84.44C968.02 84.44 968.676 84.672 969.172 85.136C969.684 85.6 969.94 86.184 969.94 86.888C969.94 87.576 969.684 88.152 969.172 88.616C968.676 89.064 968.02 89.288 967.204 89.288ZM969.532 90.536V104H964.828V90.536H969.532Z" fill="#1F1F1F"/>
</svg>
