<svg width="326" height="392" viewBox="0 0 326 392" fill="none" xmlns="http://www.w3.org/2000/svg">
<g filter="url(#filter0_d_335_225)">
<rect x="5" y="5" width="316" height="382" fill="white"/>
</g>
<rect x="40" y="39" width="246" height="238" fill="#1F1F1F"/>
<path d="M140.929 292.32V309H138.193V301.704H130.345V309H127.609V292.32H130.345V299.472H138.193V292.32H140.929ZM145.922 294.024C145.426 294.024 145.01 293.856 144.674 293.52C144.338 293.184 144.17 292.768 144.17 292.272C144.17 291.776 144.338 291.36 144.674 291.024C145.01 290.688 145.426 290.52 145.922 290.52C146.402 290.52 146.81 290.688 147.146 291.024C147.482 291.36 147.65 291.776 147.65 292.272C147.65 292.768 147.482 293.184 147.146 293.52C146.81 293.856 146.402 294.024 145.922 294.024ZM147.266 295.776V309H144.53V295.776H147.266ZM154.051 298.008V305.328C154.051 305.824 154.163 306.184 154.387 306.408C154.627 306.616 155.027 306.72 155.587 306.72H157.267V309H155.107C153.875 309 152.931 308.712 152.275 308.136C151.619 307.56 151.291 306.624 151.291 305.328V298.008H149.731V295.776H151.291V292.488H154.051V295.776H157.267V298.008H154.051ZM158.876 302.328C158.876 301 159.148 299.824 159.692 298.8C160.252 297.776 161.004 296.984 161.948 296.424C162.908 295.848 163.964 295.56 165.116 295.56C166.156 295.56 167.06 295.768 167.828 296.184C168.612 296.584 169.236 297.088 169.7 297.696V295.776H172.46V309H169.7V307.032C169.236 307.656 168.604 308.176 167.804 308.592C167.004 309.008 166.092 309.216 165.068 309.216C163.932 309.216 162.892 308.928 161.948 308.352C161.004 307.76 160.252 306.944 159.692 305.904C159.148 304.848 158.876 303.656 158.876 302.328ZM169.7 302.376C169.7 301.464 169.508 300.672 169.124 300C168.756 299.328 168.268 298.816 167.66 298.464C167.052 298.112 166.396 297.936 165.692 297.936C164.988 297.936 164.332 298.112 163.724 298.464C163.116 298.8 162.62 299.304 162.236 299.976C161.868 300.632 161.684 301.416 161.684 302.328C161.684 303.24 161.868 304.04 162.236 304.728C162.62 305.416 163.116 305.944 163.724 306.312C164.348 306.664 165.004 306.84 165.692 306.84C166.396 306.84 167.052 306.664 167.66 306.312C168.268 305.96 168.756 305.448 169.124 304.776C169.508 304.088 169.7 303.288 169.7 302.376ZM192.062 295.56C193.102 295.56 194.03 295.776 194.846 296.208C195.678 296.64 196.326 297.28 196.79 298.128C197.27 298.976 197.51 300 197.51 301.2V309H194.798V301.608C194.798 300.424 194.502 299.52 193.91 298.896C193.318 298.256 192.51 297.936 191.486 297.936C190.462 297.936 189.646 298.256 189.038 298.896C188.446 299.52 188.15 300.424 188.15 301.608V309H185.438V301.608C185.438 300.424 185.142 299.52 184.55 298.896C183.958 298.256 183.15 297.936 182.126 297.936C181.102 297.936 180.286 298.256 179.678 298.896C179.086 299.52 178.79 300.424 178.79 301.608V309H176.054V295.776H178.79V297.288C179.238 296.744 179.806 296.32 180.494 296.016C181.182 295.712 181.918 295.56 182.702 295.56C183.758 295.56 184.702 295.784 185.534 296.232C186.366 296.68 187.006 297.328 187.454 298.176C187.854 297.376 188.478 296.744 189.326 296.28C190.174 295.8 191.086 295.56 192.062 295.56Z" fill="black"/>
<defs>
<filter id="filter0_d_335_225" x="0" y="0" width="326" height="392" filterUnits="userSpaceOnUse" color-interpolation-filters="sRGB">
<feFlood flood-opacity="0" result="BackgroundImageFix"/>
<feColorMatrix in="SourceAlpha" type="matrix" values="0 0 0 0 0 0 0 0 0 0 0 0 0 0 0 0 0 0 127 0" result="hardAlpha"/>
<feOffset/>
<feGaussianBlur stdDeviation="2.5"/>
<feComposite in2="hardAlpha" operator="out"/>
<feColorMatrix type="matrix" values="0 0 0 0 0 0 0 0 0 0 0 0 0 0 0 0 0 0 0.25 0"/>
<feBlend mode="normal" in2="BackgroundImageFix" result="effect1_dropShadow_335_225"/>
<feBlend mode="normal" in="SourceGraphic" in2="effect1_dropShadow_335_225" result="shape"/>
</filter>
</defs>
</svg>
