<svg width="326" height="392" viewBox="0 0 326 392" fill="none" xmlns="http://www.w3.org/2000/svg">
<g filter="url(#filter0_d_324_167)">
<rect x="5" y="5" width="316" height="382" fill="white"/>
</g>
<rect x="40" y="39" width="246" height="238" fill="#FB2576"/>
<path d="M151.226 297.288C151.226 298.136 151.026 298.936 150.626 299.688C150.226 300.44 149.586 301.056 148.706 301.536C147.826 302 146.698 302.232 145.322 302.232H142.298V309H139.562V292.32H145.322C146.602 292.32 147.682 292.544 148.562 292.992C149.458 293.424 150.122 294.016 150.554 294.768C151.002 295.52 151.226 296.36 151.226 297.288ZM145.322 300C146.362 300 147.138 299.768 147.65 299.304C148.162 298.824 148.418 298.152 148.418 297.288C148.418 295.464 147.386 294.552 145.322 294.552H142.298V300H145.322ZM155.227 294.024C154.731 294.024 154.315 293.856 153.979 293.52C153.643 293.184 153.475 292.768 153.475 292.272C153.475 291.776 153.643 291.36 153.979 291.024C154.315 290.688 154.731 290.52 155.227 290.52C155.707 290.52 156.115 290.688 156.451 291.024C156.787 291.36 156.955 291.776 156.955 292.272C156.955 292.768 156.787 293.184 156.451 293.52C156.115 293.856 155.707 294.024 155.227 294.024ZM156.571 295.776V309H153.835V295.776H156.571ZM166.835 295.56C167.875 295.56 168.803 295.776 169.619 296.208C170.451 296.64 171.099 297.28 171.563 298.128C172.027 298.976 172.259 300 172.259 301.2V309H169.547V301.608C169.547 300.424 169.251 299.52 168.659 298.896C168.067 298.256 167.259 297.936 166.235 297.936C165.211 297.936 164.395 298.256 163.787 298.896C163.195 299.52 162.899 300.424 162.899 301.608V309H160.163V295.776H162.899V297.288C163.347 296.744 163.915 296.32 164.603 296.016C165.307 295.712 166.051 295.56 166.835 295.56ZM180.981 302.4L187.077 309H183.381L178.485 303.312V309H175.749V291.24H178.485V301.56L183.285 295.776H187.077L180.981 302.4Z" fill="#1F1F1F"/>
<defs>
<filter id="filter0_d_324_167" x="0" y="0" width="326" height="392" filterUnits="userSpaceOnUse" color-interpolation-filters="sRGB">
<feFlood flood-opacity="0" result="BackgroundImageFix"/>
<feColorMatrix in="SourceAlpha" type="matrix" values="0 0 0 0 0 0 0 0 0 0 0 0 0 0 0 0 0 0 127 0" result="hardAlpha"/>
<feOffset/>
<feGaussianBlur stdDeviation="2.5"/>
<feComposite in2="hardAlpha" operator="out"/>
<feColorMatrix type="matrix" values="0 0 0 0 0 0 0 0 0 0 0 0 0 0 0 0 0 0 0.25 0"/>
<feBlend mode="normal" in2="BackgroundImageFix" result="effect1_dropShadow_324_167"/>
<feBlend mode="normal" in="SourceGraphic" in2="effect1_dropShadow_324_167" result="shape"/>
</filter>
</defs>
</svg>
