<svg width="326" height="392" viewBox="0 0 326 392" fill="none" xmlns="http://www.w3.org/2000/svg">
<g filter="url(#filter0_d_335_226)">
<rect x="5" y="5" width="316" height="382" fill="white"/>
</g>
<rect x="40" y="39" width="246" height="238" fill="#FFD95A"/>
<path d="M131.222 309L124.766 301.536V309H122.03V292.32H124.766V299.928L131.246 292.32H134.678L127.43 300.672L134.798 309H131.222ZM149.194 295.776V309H146.458V307.44C146.026 307.984 145.458 308.416 144.754 308.736C144.066 309.04 143.33 309.192 142.546 309.192C141.506 309.192 140.57 308.976 139.738 308.544C138.922 308.112 138.274 307.472 137.794 306.624C137.33 305.776 137.098 304.752 137.098 303.552V295.776H139.81V303.144C139.81 304.328 140.106 305.24 140.698 305.88C141.29 306.504 142.098 306.816 143.122 306.816C144.146 306.816 144.954 306.504 145.546 305.88C146.154 305.24 146.458 304.328 146.458 303.144V295.776H149.194ZM159.476 295.56C160.516 295.56 161.444 295.776 162.26 296.208C163.092 296.64 163.74 297.28 164.204 298.128C164.668 298.976 164.9 300 164.9 301.2V309H162.188V301.608C162.188 300.424 161.892 299.52 161.3 298.896C160.708 298.256 159.9 297.936 158.876 297.936C157.852 297.936 157.036 298.256 156.428 298.896C155.836 299.52 155.54 300.424 155.54 301.608V309H152.804V295.776H155.54V297.288C155.988 296.744 156.556 296.32 157.244 296.016C157.948 295.712 158.692 295.56 159.476 295.56ZM169.782 294.024C169.286 294.024 168.87 293.856 168.534 293.52C168.198 293.184 168.03 292.768 168.03 292.272C168.03 291.776 168.198 291.36 168.534 291.024C168.87 290.688 169.286 290.52 169.782 290.52C170.262 290.52 170.67 290.688 171.006 291.024C171.342 291.36 171.51 291.776 171.51 292.272C171.51 292.768 171.342 293.184 171.006 293.52C170.67 293.856 170.262 294.024 169.782 294.024ZM171.126 295.776V309H168.39V295.776H171.126ZM181.39 295.56C182.43 295.56 183.358 295.776 184.174 296.208C185.006 296.64 185.654 297.28 186.118 298.128C186.582 298.976 186.814 300 186.814 301.2V309H184.102V301.608C184.102 300.424 183.806 299.52 183.214 298.896C182.622 298.256 181.814 297.936 180.79 297.936C179.766 297.936 178.95 298.256 178.342 298.896C177.75 299.52 177.454 300.424 177.454 301.608V309H174.718V295.776H177.454V297.288C177.902 296.744 178.47 296.32 179.158 296.016C179.862 295.712 180.606 295.56 181.39 295.56ZM195.632 295.56C196.656 295.56 197.56 295.768 198.344 296.184C199.144 296.584 199.768 297.088 200.216 297.696V295.776H202.976V309.216C202.976 310.432 202.72 311.512 202.208 312.456C201.696 313.416 200.952 314.168 199.976 314.712C199.016 315.256 197.864 315.528 196.52 315.528C194.728 315.528 193.24 315.104 192.056 314.256C190.872 313.424 190.2 312.288 190.04 310.848H192.752C192.96 311.536 193.4 312.088 194.072 312.504C194.76 312.936 195.576 313.152 196.52 313.152C197.624 313.152 198.512 312.816 199.184 312.144C199.872 311.472 200.216 310.496 200.216 309.216V307.008C199.752 307.632 199.12 308.16 198.32 308.592C197.536 309.008 196.64 309.216 195.632 309.216C194.48 309.216 193.424 308.928 192.464 308.352C191.52 307.76 190.768 306.944 190.208 305.904C189.664 304.848 189.392 303.656 189.392 302.328C189.392 301 189.664 299.824 190.208 298.8C190.768 297.776 191.52 296.984 192.464 296.424C193.424 295.848 194.48 295.56 195.632 295.56ZM200.216 302.376C200.216 301.464 200.024 300.672 199.64 300C199.272 299.328 198.784 298.816 198.176 298.464C197.568 298.112 196.912 297.936 196.208 297.936C195.504 297.936 194.848 298.112 194.24 298.464C193.632 298.8 193.136 299.304 192.752 299.976C192.384 300.632 192.2 301.416 192.2 302.328C192.2 303.24 192.384 304.04 192.752 304.728C193.136 305.416 193.632 305.944 194.24 306.312C194.864 306.664 195.52 306.84 196.208 306.84C196.912 306.84 197.568 306.664 198.176 306.312C198.784 305.96 199.272 305.448 199.64 304.776C200.024 304.088 200.216 303.288 200.216 302.376Z" fill="#1F1F1F"/>
<defs>
<filter id="filter0_d_335_226" x="0" y="0" width="326" height="392" filterUnits="userSpaceOnUse" color-interpolation-filters="sRGB">
<feFlood flood-opacity="0" result="BackgroundImageFix"/>
<feColorMatrix in="SourceAlpha" type="matrix" values="0 0 0 0 0 0 0 0 0 0 0 0 0 0 0 0 0 0 127 0" result="hardAlpha"/>
<feOffset/>
<feGaussianBlur stdDeviation="2.5"/>
<feComposite in2="hardAlpha" operator="out"/>
<feColorMatrix type="matrix" values="0 0 0 0 0 0 0 0 0 0 0 0 0 0 0 0 0 0 0.25 0"/>
<feBlend mode="normal" in2="BackgroundImageFix" result="effect1_dropShadow_335_226"/>
<feBlend mode="normal" in="SourceGraphic" in2="effect1_dropShadow_335_226" result="shape"/>
</filter>
</defs>
</svg>
