<svg width="326" height="392" viewBox="0 0 326 392" fill="none" xmlns="http://www.w3.org/2000/svg">
<g filter="url(#filter0_d_324_135)">
<rect x="5" y="5" width="316" height="382" fill="white"/>
</g>
<rect x="40" y="39" width="246" height="238" fill="#454545"/>
<path d="M118.985 305.592H112.001L110.801 309H107.945L113.921 292.296H117.089L123.065 309H120.185L118.985 305.592ZM118.217 303.36L115.505 295.608L112.769 303.36H118.217ZM128.399 297.744C128.863 297.104 129.495 296.584 130.295 296.184C131.111 295.768 132.015 295.56 133.007 295.56C134.175 295.56 135.231 295.84 136.175 296.4C137.119 296.96 137.863 297.76 138.407 298.8C138.951 299.824 139.223 301 139.223 302.328C139.223 303.656 138.951 304.848 138.407 305.904C137.863 306.944 137.111 307.76 136.151 308.352C135.207 308.928 134.159 309.216 133.007 309.216C131.983 309.216 131.071 309.016 130.271 308.616C129.487 308.216 128.863 307.704 128.399 307.08V309H125.663V291.24H128.399V297.744ZM136.439 302.328C136.439 301.416 136.247 300.632 135.863 299.976C135.495 299.304 134.999 298.8 134.375 298.464C133.767 298.112 133.111 297.936 132.407 297.936C131.719 297.936 131.063 298.112 130.439 298.464C129.831 298.816 129.335 299.328 128.951 300C128.583 300.672 128.399 301.464 128.399 302.376C128.399 303.288 128.583 304.088 128.951 304.776C129.335 305.448 129.831 305.96 130.439 306.312C131.063 306.664 131.719 306.84 132.407 306.84C133.111 306.84 133.767 306.664 134.375 306.312C134.999 305.944 135.495 305.416 135.863 304.728C136.247 304.04 136.439 303.24 136.439 302.328ZM153.905 295.776V309H151.169V307.44C150.737 307.984 150.169 308.416 149.465 308.736C148.777 309.04 148.041 309.192 147.257 309.192C146.217 309.192 145.281 308.976 144.449 308.544C143.633 308.112 142.985 307.472 142.505 306.624C142.041 305.776 141.809 304.752 141.809 303.552V295.776H144.521V303.144C144.521 304.328 144.817 305.24 145.409 305.88C146.001 306.504 146.809 306.816 147.833 306.816C148.857 306.816 149.665 306.504 150.257 305.88C150.865 305.24 151.169 304.328 151.169 303.144V295.776H153.905ZM167.667 299.16V301.464H157.803V299.16H167.667ZM170.642 302.328C170.642 301 170.914 299.824 171.458 298.8C172.018 297.776 172.77 296.984 173.714 296.424C174.674 295.848 175.73 295.56 176.882 295.56C177.922 295.56 178.826 295.768 179.594 296.184C180.378 296.584 181.002 297.088 181.466 297.696V295.776H184.226V309H181.466V307.032C181.002 307.656 180.37 308.176 179.57 308.592C178.77 309.008 177.858 309.216 176.834 309.216C175.698 309.216 174.658 308.928 173.714 308.352C172.77 307.76 172.018 306.944 171.458 305.904C170.914 304.848 170.642 303.656 170.642 302.328ZM181.466 302.376C181.466 301.464 181.274 300.672 180.89 300C180.522 299.328 180.034 298.816 179.426 298.464C178.818 298.112 178.162 297.936 177.458 297.936C176.754 297.936 176.098 298.112 175.49 298.464C174.882 298.8 174.386 299.304 174.002 299.976C173.634 300.632 173.45 301.416 173.45 302.328C173.45 303.24 173.634 304.04 174.002 304.728C174.386 305.416 174.882 305.944 175.49 306.312C176.114 306.664 176.77 306.84 177.458 306.84C178.162 306.84 178.818 306.664 179.426 306.312C180.034 305.96 180.522 305.448 180.89 304.776C181.274 304.088 181.466 303.288 181.466 302.376ZM190.556 297.744C191.02 297.104 191.652 296.584 192.452 296.184C193.268 295.768 194.172 295.56 195.164 295.56C196.332 295.56 197.388 295.84 198.332 296.4C199.276 296.96 200.02 297.76 200.564 298.8C201.108 299.824 201.38 301 201.38 302.328C201.38 303.656 201.108 304.848 200.564 305.904C200.02 306.944 199.268 307.76 198.308 308.352C197.364 308.928 196.316 309.216 195.164 309.216C194.14 309.216 193.228 309.016 192.428 308.616C191.644 308.216 191.02 307.704 190.556 307.08V309H187.82V291.24H190.556V297.744ZM198.596 302.328C198.596 301.416 198.404 300.632 198.02 299.976C197.652 299.304 197.156 298.8 196.532 298.464C195.924 298.112 195.268 297.936 194.564 297.936C193.876 297.936 193.22 298.112 192.596 298.464C191.988 298.816 191.492 299.328 191.108 300C190.74 300.672 190.556 301.464 190.556 302.376C190.556 303.288 190.74 304.088 191.108 304.776C191.492 305.448 191.988 305.96 192.596 306.312C193.22 306.664 193.876 306.84 194.564 306.84C195.268 306.84 195.924 306.664 196.532 306.312C197.156 305.944 197.652 305.416 198.02 304.728C198.404 304.04 198.596 303.24 198.596 302.328ZM216.061 295.776V309H213.325V307.44C212.893 307.984 212.325 308.416 211.621 308.736C210.933 309.04 210.197 309.192 209.413 309.192C208.373 309.192 207.437 308.976 206.605 308.544C205.789 308.112 205.141 307.472 204.661 306.624C204.197 305.776 203.965 304.752 203.965 303.552V295.776H206.677V303.144C206.677 304.328 206.973 305.24 207.565 305.88C208.157 306.504 208.965 306.816 209.989 306.816C211.013 306.816 211.821 306.504 212.413 305.88C213.021 305.24 213.325 304.328 213.325 303.144V295.776H216.061Z" fill="#1F1F1F"/>
<defs>
<filter id="filter0_d_324_135" x="0" y="0" width="326" height="392" filterUnits="userSpaceOnUse" color-interpolation-filters="sRGB">
<feFlood flood-opacity="0" result="BackgroundImageFix"/>
<feColorMatrix in="SourceAlpha" type="matrix" values="0 0 0 0 0 0 0 0 0 0 0 0 0 0 0 0 0 0 127 0" result="hardAlpha"/>
<feOffset/>
<feGaussianBlur stdDeviation="2.5"/>
<feComposite in2="hardAlpha" operator="out"/>
<feColorMatrix type="matrix" values="0 0 0 0 0 0 0 0 0 0 0 0 0 0 0 0 0 0 0.25 0"/>
<feBlend mode="normal" in2="BackgroundImageFix" result="effect1_dropShadow_324_135"/>
<feBlend mode="normal" in="SourceGraphic" in2="effect1_dropShadow_324_135" result="shape"/>
</filter>
</defs>
</svg>
