<svg width="326" height="392" viewBox="0 0 326 392" fill="none" xmlns="http://www.w3.org/2000/svg">
<g filter="url(#filter0_d_324_211)">
<rect x="5" y="5" width="316" height="382" fill="white"/>
</g>
<rect x="40.5" y="39.5" width="245" height="237" fill="white" fill-opacity="0.5" stroke="black"/>
<path d="M145.612 297.288C145.612 298.136 145.412 298.936 145.012 299.688C144.612 300.44 143.972 301.056 143.092 301.536C142.212 302 141.084 302.232 139.708 302.232H136.684V309H133.948V292.32H139.708C140.988 292.32 142.068 292.544 142.948 292.992C143.844 293.424 144.508 294.016 144.94 294.768C145.388 295.52 145.612 296.36 145.612 297.288ZM139.708 300C140.748 300 141.524 299.768 142.036 299.304C142.548 298.824 142.804 298.152 142.804 297.288C142.804 295.464 141.772 294.552 139.708 294.552H136.684V300H139.708ZM160.198 295.776V309H157.462V307.44C157.03 307.984 156.462 308.416 155.758 308.736C155.07 309.04 154.334 309.192 153.55 309.192C152.51 309.192 151.574 308.976 150.742 308.544C149.926 308.112 149.278 307.472 148.798 306.624C148.334 305.776 148.102 304.752 148.102 303.552V295.776H150.814V303.144C150.814 304.328 151.11 305.24 151.702 305.88C152.294 306.504 153.102 306.816 154.126 306.816C155.15 306.816 155.958 306.504 156.55 305.88C157.158 305.24 157.462 304.328 157.462 303.144V295.776H160.198ZM167 298.008V305.328C167 305.824 167.112 306.184 167.336 306.408C167.576 306.616 167.976 306.72 168.536 306.72H170.216V309H168.056C166.824 309 165.88 308.712 165.224 308.136C164.568 307.56 164.24 306.624 164.24 305.328V298.008H162.68V295.776H164.24V292.488H167V295.776H170.216V298.008H167ZM174.13 294.024C173.634 294.024 173.218 293.856 172.882 293.52C172.546 293.184 172.378 292.768 172.378 292.272C172.378 291.776 172.546 291.36 172.882 291.024C173.218 290.688 173.634 290.52 174.13 290.52C174.61 290.52 175.018 290.688 175.354 291.024C175.69 291.36 175.858 291.776 175.858 292.272C175.858 292.768 175.69 293.184 175.354 293.52C175.018 293.856 174.61 294.024 174.13 294.024ZM175.474 295.776V309H172.738V295.776H175.474ZM185.906 295.56C186.914 295.56 187.81 295.776 188.594 296.208C189.394 296.64 190.018 297.28 190.466 298.128C190.93 298.976 191.162 300 191.162 301.2V309H188.45V301.608C188.45 300.424 188.154 299.52 187.562 298.896C186.97 298.256 186.162 297.936 185.138 297.936C184.114 297.936 183.298 298.256 182.69 298.896C182.098 299.52 181.802 300.424 181.802 301.608V309H179.066V291.24H181.802V297.312C182.266 296.752 182.85 296.32 183.554 296.016C184.274 295.712 185.058 295.56 185.906 295.56Z" fill="#1F1F1F"/>
<defs>
<filter id="filter0_d_324_211" x="0" y="0" width="326" height="392" filterUnits="userSpaceOnUse" color-interpolation-filters="sRGB">
<feFlood flood-opacity="0" result="BackgroundImageFix"/>
<feColorMatrix in="SourceAlpha" type="matrix" values="0 0 0 0 0 0 0 0 0 0 0 0 0 0 0 0 0 0 127 0" result="hardAlpha"/>
<feOffset/>
<feGaussianBlur stdDeviation="2.5"/>
<feComposite in2="hardAlpha" operator="out"/>
<feColorMatrix type="matrix" values="0 0 0 0 0 0 0 0 0 0 0 0 0 0 0 0 0 0 0.25 0"/>
<feBlend mode="normal" in2="BackgroundImageFix" result="effect1_dropShadow_324_211"/>
<feBlend mode="normal" in="SourceGraphic" in2="effect1_dropShadow_324_211" result="shape"/>
</filter>
</defs>
</svg>
