<svg width="326" height="392" viewBox="0 0 326 392" fill="none" xmlns="http://www.w3.org/2000/svg">
<g filter="url(#filter0_d_324_151)">
<rect x="5" y="5" width="316" height="382" fill="white"/>
</g>
<rect x="40" y="39" width="246" height="238" fill="#379237"/>
<path d="M146.905 292.32V309H144.169V301.704H136.321V309H133.585V292.32H136.321V299.472H144.169V292.32H146.905ZM151.899 294.024C151.403 294.024 150.987 293.856 150.651 293.52C150.315 293.184 150.147 292.768 150.147 292.272C150.147 291.776 150.315 291.36 150.651 291.024C150.987 290.688 151.403 290.52 151.899 290.52C152.379 290.52 152.787 290.688 153.123 291.024C153.459 291.36 153.627 291.776 153.627 292.272C153.627 292.768 153.459 293.184 153.123 293.52C152.787 293.856 152.379 294.024 151.899 294.024ZM153.243 295.776V309H150.507V295.776H153.243ZM158.227 294.024C157.731 294.024 157.315 293.856 156.979 293.52C156.643 293.184 156.475 292.768 156.475 292.272C156.475 291.776 156.643 291.36 156.979 291.024C157.315 290.688 157.731 290.52 158.227 290.52C158.707 290.52 159.115 290.688 159.451 291.024C159.787 291.36 159.955 291.776 159.955 292.272C159.955 292.768 159.787 293.184 159.451 293.52C159.115 293.856 158.707 294.024 158.227 294.024ZM159.571 311.592C159.571 312.888 159.243 313.824 158.587 314.4C157.947 314.992 157.011 315.288 155.779 315.288H154.363V312.984H155.299C155.859 312.984 156.251 312.872 156.475 312.648C156.715 312.44 156.835 312.088 156.835 311.592V295.776H159.571V311.592ZM162.251 302.328C162.251 301 162.523 299.824 163.067 298.8C163.627 297.776 164.379 296.984 165.323 296.424C166.283 295.848 167.339 295.56 168.491 295.56C169.531 295.56 170.435 295.768 171.203 296.184C171.987 296.584 172.611 297.088 173.075 297.696V295.776H175.835V309H173.075V307.032C172.611 307.656 171.979 308.176 171.179 308.592C170.379 309.008 169.467 309.216 168.443 309.216C167.307 309.216 166.267 308.928 165.323 308.352C164.379 307.76 163.627 306.944 163.067 305.904C162.523 304.848 162.251 303.656 162.251 302.328ZM173.075 302.376C173.075 301.464 172.883 300.672 172.499 300C172.131 299.328 171.643 298.816 171.035 298.464C170.427 298.112 169.771 297.936 169.067 297.936C168.363 297.936 167.707 298.112 167.099 298.464C166.491 298.8 165.995 299.304 165.611 299.976C165.243 300.632 165.059 301.416 165.059 302.328C165.059 303.24 165.243 304.04 165.611 304.728C165.995 305.416 166.491 305.944 167.099 306.312C167.723 306.664 168.379 306.84 169.067 306.84C169.771 306.84 170.427 306.664 171.035 306.312C171.643 305.96 172.131 305.448 172.499 304.776C172.883 304.088 173.075 303.288 173.075 302.376ZM191.405 295.776V309H188.669V307.44C188.237 307.984 187.669 308.416 186.965 308.736C186.277 309.04 185.541 309.192 184.757 309.192C183.717 309.192 182.781 308.976 181.949 308.544C181.133 308.112 180.485 307.472 180.005 306.624C179.541 305.776 179.309 304.752 179.309 303.552V295.776H182.021V303.144C182.021 304.328 182.317 305.24 182.909 305.88C183.501 306.504 184.309 306.816 185.333 306.816C186.357 306.816 187.165 306.504 187.757 305.88C188.365 305.24 188.669 304.328 188.669 303.144V295.776H191.405Z" fill="#1F1F1F"/>
<defs>
<filter id="filter0_d_324_151" x="0" y="0" width="326" height="392" filterUnits="userSpaceOnUse" color-interpolation-filters="sRGB">
<feFlood flood-opacity="0" result="BackgroundImageFix"/>
<feColorMatrix in="SourceAlpha" type="matrix" values="0 0 0 0 0 0 0 0 0 0 0 0 0 0 0 0 0 0 127 0" result="hardAlpha"/>
<feOffset/>
<feGaussianBlur stdDeviation="2.5"/>
<feComposite in2="hardAlpha" operator="out"/>
<feColorMatrix type="matrix" values="0 0 0 0 0 0 0 0 0 0 0 0 0 0 0 0 0 0 0.25 0"/>
<feBlend mode="normal" in2="BackgroundImageFix" result="effect1_dropShadow_324_151"/>
<feBlend mode="normal" in="SourceGraphic" in2="effect1_dropShadow_324_151" result="shape"/>
</filter>
</defs>
</svg>
