<svg width="326" height="392" viewBox="0 0 326 392" fill="none" xmlns="http://www.w3.org/2000/svg">
<g filter="url(#filter0_d_324_155)">
<rect x="5" y="5" width="316" height="382" fill="white"/>
</g>
<rect x="40" y="39" width="246" height="238" fill="#A31ACB"/>
<path d="M135.008 292.32V302.952C135.008 304.216 135.336 305.168 135.992 305.808C136.664 306.448 137.592 306.768 138.776 306.768C139.976 306.768 140.904 306.448 141.56 305.808C142.232 305.168 142.568 304.216 142.568 302.952V292.32H145.304V302.904C145.304 304.264 145.008 305.416 144.416 306.36C143.824 307.304 143.032 308.008 142.04 308.472C141.048 308.936 139.952 309.168 138.752 309.168C137.552 309.168 136.456 308.936 135.464 308.472C134.488 308.008 133.712 307.304 133.136 306.36C132.56 305.416 132.272 304.264 132.272 302.904V292.32H135.008ZM155.538 295.56C156.578 295.56 157.506 295.776 158.322 296.208C159.154 296.64 159.802 297.28 160.266 298.128C160.73 298.976 160.962 300 160.962 301.2V309H158.25V301.608C158.25 300.424 157.954 299.52 157.362 298.896C156.77 298.256 155.962 297.936 154.938 297.936C153.914 297.936 153.098 298.256 152.49 298.896C151.898 299.52 151.602 300.424 151.602 301.608V309H148.866V295.776H151.602V297.288C152.05 296.744 152.618 296.32 153.306 296.016C154.01 295.712 154.754 295.56 155.538 295.56ZM169.78 295.56C170.804 295.56 171.708 295.768 172.492 296.184C173.292 296.584 173.916 297.088 174.364 297.696V295.776H177.124V309.216C177.124 310.432 176.868 311.512 176.356 312.456C175.844 313.416 175.1 314.168 174.124 314.712C173.164 315.256 172.012 315.528 170.668 315.528C168.876 315.528 167.388 315.104 166.204 314.256C165.02 313.424 164.348 312.288 164.188 310.848H166.9C167.108 311.536 167.548 312.088 168.22 312.504C168.908 312.936 169.724 313.152 170.668 313.152C171.772 313.152 172.66 312.816 173.332 312.144C174.02 311.472 174.364 310.496 174.364 309.216V307.008C173.9 307.632 173.268 308.16 172.468 308.592C171.684 309.008 170.788 309.216 169.78 309.216C168.628 309.216 167.572 308.928 166.612 308.352C165.668 307.76 164.916 306.944 164.356 305.904C163.812 304.848 163.54 303.656 163.54 302.328C163.54 301 163.812 299.824 164.356 298.8C164.916 297.776 165.668 296.984 166.612 296.424C167.572 295.848 168.628 295.56 169.78 295.56ZM174.364 302.376C174.364 301.464 174.172 300.672 173.788 300C173.42 299.328 172.932 298.816 172.324 298.464C171.716 298.112 171.06 297.936 170.356 297.936C169.652 297.936 168.996 298.112 168.388 298.464C167.78 298.8 167.284 299.304 166.9 299.976C166.532 300.632 166.348 301.416 166.348 302.328C166.348 303.24 166.532 304.04 166.9 304.728C167.284 305.416 167.78 305.944 168.388 306.312C169.012 306.664 169.668 306.84 170.356 306.84C171.06 306.84 171.716 306.664 172.324 306.312C172.932 305.96 173.42 305.448 173.788 304.776C174.172 304.088 174.364 303.288 174.364 302.376ZM192.694 295.776V309H189.958V307.44C189.526 307.984 188.958 308.416 188.254 308.736C187.566 309.04 186.83 309.192 186.046 309.192C185.006 309.192 184.07 308.976 183.238 308.544C182.422 308.112 181.774 307.472 181.294 306.624C180.83 305.776 180.598 304.752 180.598 303.552V295.776H183.31V303.144C183.31 304.328 183.606 305.24 184.198 305.88C184.79 306.504 185.598 306.816 186.622 306.816C187.646 306.816 188.454 306.504 189.046 305.88C189.654 305.24 189.958 304.328 189.958 303.144V295.776H192.694Z" fill="#1F1F1F"/>
<defs>
<filter id="filter0_d_324_155" x="0" y="0" width="326" height="392" filterUnits="userSpaceOnUse" color-interpolation-filters="sRGB">
<feFlood flood-opacity="0" result="BackgroundImageFix"/>
<feColorMatrix in="SourceAlpha" type="matrix" values="0 0 0 0 0 0 0 0 0 0 0 0 0 0 0 0 0 0 127 0" result="hardAlpha"/>
<feOffset/>
<feGaussianBlur stdDeviation="2.5"/>
<feComposite in2="hardAlpha" operator="out"/>
<feColorMatrix type="matrix" values="0 0 0 0 0 0 0 0 0 0 0 0 0 0 0 0 0 0 0.25 0"/>
<feBlend mode="normal" in2="BackgroundImageFix" result="effect1_dropShadow_324_155"/>
<feBlend mode="normal" in="SourceGraphic" in2="effect1_dropShadow_324_155" result="shape"/>
</filter>
</defs>
</svg>
