<svg width="326" height="392" viewBox="0 0 326 392" fill="none" xmlns="http://www.w3.org/2000/svg">
<g filter="url(#filter0_d_324_159)">
<rect x="5" y="5" width="316" height="382" fill="white"/>
</g>
<rect x="40" y="39" width="246" height="238" fill="#FFB84C"/>
<path d="M131.267 292.32V304.344C131.267 305.832 130.811 307.008 129.899 307.872C129.003 308.736 127.819 309.168 126.347 309.168C124.875 309.168 123.683 308.736 122.771 307.872C121.875 307.008 121.427 305.832 121.427 304.344H124.187C124.203 305.08 124.387 305.664 124.739 306.096C125.107 306.528 125.643 306.744 126.347 306.744C127.051 306.744 127.587 306.528 127.955 306.096C128.323 305.648 128.507 305.064 128.507 304.344V292.32H131.267ZM137.11 294.024C136.614 294.024 136.198 293.856 135.862 293.52C135.526 293.184 135.358 292.768 135.358 292.272C135.358 291.776 135.526 291.36 135.862 291.024C136.198 290.688 136.614 290.52 137.11 290.52C137.59 290.52 137.998 290.688 138.334 291.024C138.67 291.36 138.838 291.776 138.838 292.272C138.838 292.768 138.67 293.184 138.334 293.52C137.998 293.856 137.59 294.024 137.11 294.024ZM138.454 295.776V309H135.718V295.776H138.454ZM148.718 295.56C149.758 295.56 150.686 295.776 151.502 296.208C152.334 296.64 152.982 297.28 153.446 298.128C153.91 298.976 154.142 300 154.142 301.2V309H151.43V301.608C151.43 300.424 151.134 299.52 150.542 298.896C149.95 298.256 149.142 297.936 148.118 297.936C147.094 297.936 146.278 298.256 145.67 298.896C145.078 299.52 144.782 300.424 144.782 301.608V309H142.046V295.776H144.782V297.288C145.23 296.744 145.798 296.32 146.486 296.016C147.19 295.712 147.934 295.56 148.718 295.56ZM162.96 295.56C163.984 295.56 164.888 295.768 165.672 296.184C166.472 296.584 167.096 297.088 167.544 297.696V295.776H170.304V309.216C170.304 310.432 170.048 311.512 169.536 312.456C169.024 313.416 168.28 314.168 167.304 314.712C166.344 315.256 165.192 315.528 163.848 315.528C162.056 315.528 160.568 315.104 159.384 314.256C158.2 313.424 157.528 312.288 157.368 310.848H160.08C160.288 311.536 160.728 312.088 161.4 312.504C162.088 312.936 162.904 313.152 163.848 313.152C164.952 313.152 165.84 312.816 166.512 312.144C167.2 311.472 167.544 310.496 167.544 309.216V307.008C167.08 307.632 166.448 308.16 165.648 308.592C164.864 309.008 163.968 309.216 162.96 309.216C161.808 309.216 160.752 308.928 159.792 308.352C158.848 307.76 158.096 306.944 157.536 305.904C156.992 304.848 156.72 303.656 156.72 302.328C156.72 301 156.992 299.824 157.536 298.8C158.096 297.776 158.848 296.984 159.792 296.424C160.752 295.848 161.808 295.56 162.96 295.56ZM167.544 302.376C167.544 301.464 167.352 300.672 166.968 300C166.6 299.328 166.112 298.816 165.504 298.464C164.896 298.112 164.24 297.936 163.536 297.936C162.832 297.936 162.176 298.112 161.568 298.464C160.96 298.8 160.464 299.304 160.08 299.976C159.712 300.632 159.528 301.416 159.528 302.328C159.528 303.24 159.712 304.04 160.08 304.728C160.464 305.416 160.96 305.944 161.568 306.312C162.192 306.664 162.848 306.84 163.536 306.84C164.24 306.84 164.896 306.664 165.504 306.312C166.112 305.96 166.6 305.448 166.968 304.776C167.352 304.088 167.544 303.288 167.544 302.376ZM179.226 295.56C180.25 295.56 181.154 295.768 181.938 296.184C182.738 296.584 183.362 297.088 183.81 297.696V295.776H186.57V309.216C186.57 310.432 186.314 311.512 185.802 312.456C185.29 313.416 184.546 314.168 183.57 314.712C182.61 315.256 181.458 315.528 180.114 315.528C178.322 315.528 176.834 315.104 175.65 314.256C174.466 313.424 173.794 312.288 173.634 310.848H176.346C176.554 311.536 176.994 312.088 177.666 312.504C178.354 312.936 179.17 313.152 180.114 313.152C181.218 313.152 182.106 312.816 182.778 312.144C183.466 311.472 183.81 310.496 183.81 309.216V307.008C183.346 307.632 182.714 308.16 181.914 308.592C181.13 309.008 180.234 309.216 179.226 309.216C178.074 309.216 177.018 308.928 176.058 308.352C175.114 307.76 174.362 306.944 173.802 305.904C173.258 304.848 172.986 303.656 172.986 302.328C172.986 301 173.258 299.824 173.802 298.8C174.362 297.776 175.114 296.984 176.058 296.424C177.018 295.848 178.074 295.56 179.226 295.56ZM183.81 302.376C183.81 301.464 183.618 300.672 183.234 300C182.866 299.328 182.378 298.816 181.77 298.464C181.162 298.112 180.506 297.936 179.802 297.936C179.098 297.936 178.442 298.112 177.834 298.464C177.226 298.8 176.73 299.304 176.346 299.976C175.978 300.632 175.794 301.416 175.794 302.328C175.794 303.24 175.978 304.04 176.346 304.728C176.73 305.416 177.226 305.944 177.834 306.312C178.458 306.664 179.114 306.84 179.802 306.84C180.506 306.84 181.162 306.664 181.77 306.312C182.378 305.96 182.866 305.448 183.234 304.776C183.618 304.088 183.81 303.288 183.81 302.376ZM189.251 302.328C189.251 301 189.523 299.824 190.067 298.8C190.627 297.776 191.379 296.984 192.323 296.424C193.283 295.848 194.339 295.56 195.491 295.56C196.531 295.56 197.435 295.768 198.203 296.184C198.987 296.584 199.611 297.088 200.075 297.696V295.776H202.835V309H200.075V307.032C199.611 307.656 198.979 308.176 198.179 308.592C197.379 309.008 196.467 309.216 195.443 309.216C194.307 309.216 193.267 308.928 192.323 308.352C191.379 307.76 190.627 306.944 190.067 305.904C189.523 304.848 189.251 303.656 189.251 302.328ZM200.075 302.376C200.075 301.464 199.883 300.672 199.499 300C199.131 299.328 198.643 298.816 198.035 298.464C197.427 298.112 196.771 297.936 196.067 297.936C195.363 297.936 194.707 298.112 194.099 298.464C193.491 298.8 192.995 299.304 192.611 299.976C192.243 300.632 192.059 301.416 192.059 302.328C192.059 303.24 192.243 304.04 192.611 304.728C192.995 305.416 193.491 305.944 194.099 306.312C194.723 306.664 195.379 306.84 196.067 306.84C196.771 306.84 197.427 306.664 198.035 306.312C198.643 305.96 199.131 305.448 199.499 304.776C199.883 304.088 200.075 303.288 200.075 302.376Z" fill="#1F1F1F"/>
<defs>
<filter id="filter0_d_324_159" x="0" y="0" width="326" height="392" filterUnits="userSpaceOnUse" color-interpolation-filters="sRGB">
<feFlood flood-opacity="0" result="BackgroundImageFix"/>
<feColorMatrix in="SourceAlpha" type="matrix" values="0 0 0 0 0 0 0 0 0 0 0 0 0 0 0 0 0 0 127 0" result="hardAlpha"/>
<feOffset/>
<feGaussianBlur stdDeviation="2.5"/>
<feComposite in2="hardAlpha" operator="out"/>
<feColorMatrix type="matrix" values="0 0 0 0 0 0 0 0 0 0 0 0 0 0 0 0 0 0 0.25 0"/>
<feBlend mode="normal" in2="BackgroundImageFix" result="effect1_dropShadow_324_159"/>
<feBlend mode="normal" in="SourceGraphic" in2="effect1_dropShadow_324_159" result="shape"/>
</filter>
</defs>
</svg>
