<svg width="326" height="392" viewBox="0 0 326 392" fill="none" xmlns="http://www.w3.org/2000/svg">
<g filter="url(#filter0_d_324_163)">
<rect x="5" y="5" width="316" height="382" fill="white"/>
</g>
<rect x="40" y="39" width="246" height="238" fill="#A64B2A"/>
<path d="M124.048 300.624C124.048 298.992 124.424 297.528 125.176 296.232C125.944 294.936 126.976 293.928 128.272 293.208C129.584 292.472 131.016 292.104 132.568 292.104C134.344 292.104 135.92 292.544 137.296 293.424C138.688 294.288 139.696 295.52 140.32 297.12H137.032C136.6 296.24 136 295.584 135.232 295.152C134.464 294.72 133.576 294.504 132.568 294.504C131.464 294.504 130.48 294.752 129.616 295.248C128.752 295.744 128.072 296.456 127.576 297.384C127.096 298.312 126.856 299.392 126.856 300.624C126.856 301.856 127.096 302.936 127.576 303.864C128.072 304.792 128.752 305.512 129.616 306.024C130.48 306.52 131.464 306.768 132.568 306.768C133.576 306.768 134.464 306.552 135.232 306.12C136 305.688 136.6 305.032 137.032 304.152H140.32C139.696 305.752 138.688 306.984 137.296 307.848C135.92 308.712 134.344 309.144 132.568 309.144C131 309.144 129.568 308.784 128.272 308.064C126.976 307.328 125.944 306.312 125.176 305.016C124.424 303.72 124.048 302.256 124.048 300.624ZM149.259 309.216C148.011 309.216 146.883 308.936 145.875 308.376C144.867 307.8 144.075 307 143.499 305.976C142.923 304.936 142.635 303.736 142.635 302.376C142.635 301.032 142.931 299.84 143.523 298.8C144.115 297.76 144.923 296.96 145.947 296.4C146.971 295.84 148.115 295.56 149.379 295.56C150.643 295.56 151.787 295.84 152.811 296.4C153.835 296.96 154.643 297.76 155.235 298.8C155.827 299.84 156.123 301.032 156.123 302.376C156.123 303.72 155.819 304.912 155.211 305.952C154.603 306.992 153.771 307.8 152.715 308.376C151.675 308.936 150.523 309.216 149.259 309.216ZM149.259 306.84C149.963 306.84 150.619 306.672 151.227 306.336C151.851 306 152.355 305.496 152.739 304.824C153.123 304.152 153.315 303.336 153.315 302.376C153.315 301.416 153.131 300.608 152.763 299.952C152.395 299.28 151.907 298.776 151.299 298.44C150.691 298.104 150.035 297.936 149.331 297.936C148.627 297.936 147.971 298.104 147.363 298.44C146.771 298.776 146.299 299.28 145.947 299.952C145.595 300.608 145.419 301.416 145.419 302.376C145.419 303.8 145.779 304.904 146.499 305.688C147.235 306.456 148.155 306.84 149.259 306.84ZM164.059 302.4L170.155 309H166.459L161.563 303.312V309H158.827V291.24H161.563V301.56L166.363 295.776H170.155L164.059 302.4ZM174.852 291.24V309H172.116V291.24H174.852ZM177.533 302.328C177.533 301 177.805 299.824 178.349 298.8C178.909 297.776 179.661 296.984 180.605 296.424C181.565 295.848 182.621 295.56 183.773 295.56C184.813 295.56 185.717 295.768 186.485 296.184C187.269 296.584 187.893 297.088 188.357 297.696V295.776H191.117V309H188.357V307.032C187.893 307.656 187.261 308.176 186.461 308.592C185.661 309.008 184.749 309.216 183.725 309.216C182.589 309.216 181.549 308.928 180.605 308.352C179.661 307.76 178.909 306.944 178.349 305.904C177.805 304.848 177.533 303.656 177.533 302.328ZM188.357 302.376C188.357 301.464 188.165 300.672 187.781 300C187.413 299.328 186.925 298.816 186.317 298.464C185.709 298.112 185.053 297.936 184.349 297.936C183.645 297.936 182.989 298.112 182.381 298.464C181.773 298.8 181.277 299.304 180.893 299.976C180.525 300.632 180.341 301.416 180.341 302.328C180.341 303.24 180.525 304.04 180.893 304.728C181.277 305.416 181.773 305.944 182.381 306.312C183.005 306.664 183.661 306.84 184.349 306.84C185.053 306.84 185.709 306.664 186.317 306.312C186.925 305.96 187.413 305.448 187.781 304.776C188.165 304.088 188.357 303.288 188.357 302.376ZM197.902 298.008V305.328C197.902 305.824 198.014 306.184 198.238 306.408C198.478 306.616 198.878 306.72 199.438 306.72H201.118V309H198.958C197.726 309 196.782 308.712 196.126 308.136C195.47 307.56 195.142 306.624 195.142 305.328V298.008H193.582V295.776H195.142V292.488H197.902V295.776H201.118V298.008H197.902Z" fill="#1F1F1F"/>
<defs>
<filter id="filter0_d_324_163" x="0" y="0" width="326" height="392" filterUnits="userSpaceOnUse" color-interpolation-filters="sRGB">
<feFlood flood-opacity="0" result="BackgroundImageFix"/>
<feColorMatrix in="SourceAlpha" type="matrix" values="0 0 0 0 0 0 0 0 0 0 0 0 0 0 0 0 0 0 127 0" result="hardAlpha"/>
<feOffset/>
<feGaussianBlur stdDeviation="2.5"/>
<feComposite in2="hardAlpha" operator="out"/>
<feColorMatrix type="matrix" values="0 0 0 0 0 0 0 0 0 0 0 0 0 0 0 0 0 0 0.25 0"/>
<feBlend mode="normal" in2="BackgroundImageFix" result="effect1_dropShadow_324_163"/>
<feBlend mode="normal" in="SourceGraphic" in2="effect1_dropShadow_324_163" result="shape"/>
</filter>
</defs>
</svg>
